<?xml version="1.0" encoding="UTF-8" standalone="no"?>
<!-- Created with Inkscape (http://www.inkscape.org/) -->

<svg
   width="640"
   height="960"
   viewBox="0 0 169.33333 254"
   version="1.1"
   id="svg1"
   sodipodi:docname="kalpa-banner.svg"
   inkscape:version="1.3.2 (091e20ef0f, 2023-11-25)"
   inkscape:export-filename="kalpa-banner.png"
   inkscape:export-xdpi="96"
   inkscape:export-ydpi="96"
   xmlns:inkscape="http://www.inkscape.org/namespaces/inkscape"
   xmlns:sodipodi="http://sodipodi.sourceforge.net/DTD/sodipodi-0.dtd"
   xmlns:xlink="http://www.w3.org/1999/xlink"
   xmlns="http://www.w3.org/2000/svg"
   xmlns:svg="http://www.w3.org/2000/svg">
  <sodipodi:namedview
     id="namedview1"
     pagecolor="#ffffff"
     bordercolor="#000000"
     borderopacity="0.25"
     inkscape:showpageshadow="2"
     inkscape:pageopacity="0.0"
     inkscape:pagecheckerboard="0"
     inkscape:deskcolor="#d1d1d1"
     inkscape:zoom="0.65241649"
     inkscape:cx="171.66948"
     inkscape:cy="515.00844"
     inkscape:window-width="1920"
     inkscape:window-height="1002"
     inkscape:window-x="0"
     inkscape:window-y="0"
     inkscape:window-maximized="1"
     inkscape:current-layer="svg1"
     inkscape:export-bgcolor="#ffffffff" />
  <defs
     id="defs1">
    <rect
       x="41.384605"
       y="331.9238"
       width="304.09784"
       height="238.25813"
       id="rect15" />
    <rect
       x="953.52887"
       y="563.20331"
       width="232.82693"
       height="16.883345"
       id="rect9" />
    <rect
       x="566.29163"
       y="133.2229"
       width="355.20441"
       height="132.63005"
       id="rect8" />
    <linearGradient
       id="linearGradient12">
      <stop
         style="stop-color:#73ba25;stop-opacity:0.49585547;"
         offset="0"
         id="stop12" />
      <stop
         style="stop-color:#73b925;stop-opacity:0;"
         offset="1"
         id="stop13" />
    </linearGradient>
    <linearGradient
       xlink:href="#linearGradient12"
       id="linearGradient13"
       x1="59.047779"
       y1="0"
       x2="169.33333"
       y2="169.33331"
       gradientUnits="userSpaceOnUse"
       gradientTransform="matrix(-0.5,0,0,1.5000001,169.33333,0)" />
  </defs>
  <path
     id="rect12"
     style="fill:url(#linearGradient13);stroke-width:0.229136"
     d="M 169.33333,0 H 0 v 254 h 169.33333 z"
     inkscape:label="gradient" />
  <path
     id="path2"
     style="display:inline;fill:#73ba25;fill-opacity:1;stroke-width:1.77063"
     d="m 68.675528,26.00826 c -0.11835,0.01604 -0.232927,0.0739 -0.319567,0.167057 l -4.010171,4.294757 c -0.1686,0.181143 -0.19222,0.455028 -0.0584,0.664748 l 5.054798,7.921286 c -0.816387,1.483174 -1.462297,3.077477 -1.907147,4.750684 l -8.814111,2.119536 c -0.24531,0.05875 -0.41946,0.28301 -0.41236,0.539454 l 0.16494,5.909645 c 0.007,0.249931 0.1833,0.463651 0.42267,0.515092 l 8.666351,1.886352 c 0.51221,1.908693 1.271207,3.708566 2.257647,5.356264 l -4.769587,7.837756 c -0.13304,0.21904 -0.0953,0.49915 0.0893,0.67519 l 4.240387,4.06157 c 0.17833,0.17029 0.45179,0.19742 0.65977,0.0627 l 7.67327,-5.02564 c 1.5584,0.85275 3.2317,1.51335 4.99294,1.94204 l 2.06866,8.81921 c 0.0582,0.25 0.28106,0.42131 0.53263,0.41417 l 5.83484,-0.16706 c 0.2453,-0.007 0.45333,-0.18279 0.50513,-0.42808 l 1.90028,-8.94799 c 1.78825,-0.54369 3.47183,-1.32582 5.017,-2.30748 l 7.834772,4.8899 c 0.21545,0.13512 0.49554,0.0999 0.67008,-0.087 l 4.01016,-4.29476 c 0.16965,-0.18168 0.19255,-0.45559 0.0584,-0.66475 l -2.93804,-4.60799 -0.90032,0.31672 c -0.13128,0.0462 -0.27622,-2.7e-4 -0.35737,-0.11486 0,0 -1.86614,-2.604744 -4.27476,-5.968796 -2.614162,5.561066 -8.137002,9.473456 -14.635222,9.657986 -4.19578,0.11913 -8.07164,-1.33954 -11.07863,-3.84232 l 0.84189,-0.85268 c 6.09959,5.05434 15.14654,4.70613 20.8343,-1.054551 5.687772,-5.760677 6.035012,-14.923607 1.04464,-21.101388 l 5.553072,-5.624252 a 1.5550956,1.5750311 6.7320406e-4 1 0 -2.19924,-2.227427 l -5.553062,5.624252 c -6.09959,-5.054345 -15.14654,-4.706132 -20.83431,1.054546 -5.68776,5.76068 -6.03157,14.92361 -1.0412,21.101393 l -0.85563,0.863123 c -2.33663,-2.822395 -3.78694,-6.428126 -3.89677,-10.39582 -0.19042,-6.879016 3.69735,-12.912422 9.43953,-15.727722 l -0.1237,-4.367845 c -1.04805,0.405078 -2.05664,0.887519 -3.01364,1.451307 l -0.004,-0.0036 -8.02033,-5.008231 c -0.10799,-0.06716 -0.23218,-0.0923 -0.3505,-0.07657 z m 18.78627,10.69861 c 3.15486,-0.01586 6.31653,1.18405 8.7557,3.595205 a 1.5550548,1.5749898 6.3209206e-4 0 0 0.20961,0.212303 c 4.765632,4.940604 4.742812,12.806988 -0.0928,17.70456 -4.83413,4.896103 -12.5987,4.919763 -17.47704,0.09746 a 1.5550548,1.5749898 6.3209206e-4 0 0 -0.20961,-0.212302 c -4.76563,-4.940604 -4.74281,-12.806989 0.0928,-17.704565 2.41707,-2.448049 5.56648,-3.676865 8.72134,-3.692655 z m 0.0756,6.313363 c -1.59499,0 -3.19053,0.610721 -4.39847,1.834146 -2.41588,2.446847 -2.41588,6.462855 0,8.909709 2.41589,2.446851 6.38106,2.446848 8.79694,0 2.41588,-2.446848 2.41588,-6.462856 0,-8.909709 -1.20795,-1.223427 -2.80349,-1.834148 -4.39847,-1.834146 z m 0,3.128838 c 0.79261,0 1.5855,0.311127 2.19923,0.932734 1.22748,1.243216 1.22747,3.211643 0,4.454854 -1.22747,1.243211 -3.17098,1.243219 -4.39846,0 -1.22749,-1.243216 -1.22748,-3.211643 0,-4.454854 0.61373,-0.621603 1.40662,-0.932734 2.19923,-0.932734 z"
     inkscape:label="logo" />
  <text
     xml:space="preserve"
     style="font-style:normal;font-variant:normal;font-weight:600;font-stretch:normal;font-size:12.7px;line-height:0;font-family:SUSE;-inkscape-font-specification:'SUSE Semi-Bold';fill:#000000;fill-opacity:1;stroke-width:0.264583;paint-order:markers stroke fill"
     x="15.945164"
     y="231.00616"
     id="text18"
     inkscape:label="attributes"><tspan
       sodipodi:role="line"
       id="tspan18"
       style="fill:#000000;stroke-width:0.264583"
       x="15.945164"
       y="231.00616">Fast. <tspan
   style="fill:#73ba25;fill-opacity:1"
   id="tspan19">Immutable.</tspan> Stable.</tspan></text>
  <text
     xml:space="preserve"
     style="font-style:normal;font-variant:normal;font-weight:600;font-stretch:normal;font-size:11.2889px;line-height:0;font-family:SUSE;-inkscape-font-specification:'SUSE Semi-Bold';fill:#000000;fill-opacity:1;stroke-width:0.264583;paint-order:markers stroke fill"
     x="26.578812"
     y="178.66473"
     id="text22"
     inkscape:label="focus"><tspan
       sodipodi:role="line"
       id="tspan22"
       style="font-size:11.2889px;stroke-width:0.264583"
       x="26.578812"
       y="178.66473">Focus on what matters.</tspan></text>
  <text
     xml:space="preserve"
     style="font-style:normal;font-variant:normal;font-weight:600;font-stretch:normal;font-size:11.2889px;line-height:0;font-family:SUSE;-inkscape-font-specification:'SUSE Semi-Bold';fill:#000000;fill-opacity:1;stroke-width:0.264583;paint-order:markers stroke fill"
     x="7.8674541"
     y="167.6151"
     id="text23"
     inkscape:label="os itself"><tspan
       sodipodi:role="line"
       id="tspan23"
       style="font-size:11.2889px;stroke-width:0.264583"
       x="7.8674541"
       y="167.6151">The OS that takes care of itself.</tspan></text>
  <text
     xml:space="preserve"
     style="font-style:normal;font-variant:normal;font-weight:600;font-stretch:normal;font-size:25.4px;line-height:0;font-family:SUSE;-inkscape-font-specification:'SUSE Semi-Bold';fill:#000000;fill-opacity:1;stroke-width:0.264583;paint-order:markers stroke fill"
     x="51.964172"
     y="108.18191"
     id="text24"
     inkscape:label="kalpa"><tspan
       sodipodi:role="line"
       id="tspan24"
       style="font-size:25.4px;stroke-width:0.264583"
       x="51.964172"
       y="108.18191"><tspan
   style="font-size:25.4px;fill:#73ba25;fill-opacity:1"
   id="tspan26">K</tspan>alpa</tspan></text>
  <text
     xml:space="preserve"
     style="font-style:normal;font-variant:normal;font-weight:600;font-stretch:normal;font-size:14.1111px;line-height:0;font-family:SUSE;-inkscape-font-specification:'SUSE Semi-Bold';fill:#000000;fill-opacity:1;stroke-width:0.264583;paint-order:markers stroke fill"
     x="58.130741"
     y="124.64407"
     id="text25"
     inkscape:label="desktop"><tspan
       sodipodi:role="line"
       id="tspan25"
       style="font-size:14.1111px;stroke-width:0.264583"
       x="58.130741"
       y="124.64407">Desktop</tspan></text>
</svg>
