<?xml version="1.0" encoding="UTF-8" standalone="no"?>
<!-- Created with Inkscape (http://www.inkscape.org/) -->

<svg
   width="250mm"
   height="250mm"
   viewBox="0 0 250 250"
   version="1.1"
   id="svg1"
   xmlns="http://www.w3.org/2000/svg"
   xmlns:svg="http://www.w3.org/2000/svg">
  <defs
     id="defs1" />
  <text
     xml:space="preserve"
     style="font-weight:600;font-size:50.8px;line-height:0;font-family:SUSE;-inkscape-font-specification:'SUSE Semi-Bold';fill:#ffffff;stroke-width:0.264583;paint-order:markers stroke fill"
     x="59.595013"
     y="114.84"
     id="text3"><tspan
       id="tspan3"
       style="fill:#ffffff;stroke-width:0.264583"
       x="59.595013"
       y="114.84"><tspan
   style="fill:#73ba25;fill-opacity:1"
   id="tspan5">K</tspan>alpa</tspan></text>
  <g
     id="g5"
     transform="translate(-4.4117655,-24.999998)">
    <text
       xml:space="preserve"
       style="font-weight:600;font-size:50.8px;line-height:0;font-family:SUSE;-inkscape-font-specification:'SUSE Semi-Bold';fill:#ffffff;stroke-width:0.264583;paint-order:markers stroke fill"
       x="31.189947"
       y="187.084"
       id="text4"><tspan
         id="tspan4"
         style="fill:#ffffff;stroke-width:0.264583"
         x="31.189947"
         y="187.084">Deskt   p</tspan></text>
    <path
       id="path2"
       style="fill:#73ba25;fill-opacity:1;stroke-width:1.08981"
       d="m 169.54736,157.3398 c -0.0728,0.01 -0.14337,0.0455 -0.19669,0.10282 l -2.46824,2.6434 c -0.10378,0.1115 -0.11831,0.28007 -0.036,0.40915 l 3.11121,4.87552 c -0.50249,0.91289 -0.90004,1.89418 -1.17384,2.92402 l -5.42505,1.30457 c -0.15099,0.0362 -0.25818,0.17419 -0.25381,0.33203 l 0.10152,3.63736 c 0.004,0.15383 0.11282,0.28538 0.26016,0.31704 l 5.3341,1.16104 c 0.31526,1.17479 0.78242,2.28261 1.38957,3.29676 l -2.93566,4.82411 c -0.0819,0.13481 -0.0586,0.30721 0.055,0.41557 l 2.60994,2.49988 c 0.10977,0.10481 0.27808,0.12151 0.40609,0.0385 l 4.72286,-3.09326 c 0.95919,0.52487 1.9891,0.93146 3.07314,1.19532 l 1.27325,5.42818 c 0.0358,0.15388 0.17299,0.25932 0.32783,0.25492 l 3.59132,-0.10282 c 0.15098,-0.004 0.27902,-0.11251 0.3109,-0.26348 l 1.16962,-5.50745 c 1.10066,-0.33463 2.13689,-0.81604 3.08794,-1.42024 l 4.82226,3.00971 c 0.13261,0.0832 0.30501,0.0615 0.41243,-0.0535 l 2.46824,-2.64341 c 0.10442,-0.11182 0.11851,-0.28041 0.036,-0.40915 l -1.80836,-2.8362 -0.55414,0.19494 c -0.0808,0.0284 -0.17001,-1.6e-4 -0.21996,-0.0707 0,0 -1.1486,-1.60321 -2.63109,-3.67377 -1.60901,3.42281 -5.00829,5.83087 -9.00792,5.94445 -2.58248,0.0733 -4.96806,-0.82449 -6.81884,-2.36493 l 0.51818,-0.52483 c 3.75427,3.11093 9.32262,2.89661 12.82341,-0.64907 3.5008,-3.54567 3.71453,-9.18541 0.64298,-12.98781 l 3.41789,-3.4617 a 0.95715663,0.96942686 6.7320406e-4 1 0 -1.35363,-1.37097 l -3.41788,3.4617 c -3.75427,-3.11093 -9.32263,-2.8966 -12.82343,0.64907 -3.50079,3.54567 -3.7124,9.18541 -0.64085,12.98781 l -0.52664,0.53125 c -1.43818,-1.73717 -2.33084,-3.95648 -2.39844,-6.39858 -0.1172,-4.234 2.2757,-7.94754 5.80999,-9.68035 l -0.0761,-2.68838 c -0.64507,0.24932 -1.26585,0.54626 -1.85488,0.89327 l -0.002,-0.002 -4.93648,-3.08254 c -0.0665,-0.0414 -0.14291,-0.0568 -0.21573,-0.0471 z m 11.56287,6.58494 c 1.9418,-0.01 3.88779,0.72878 5.38909,2.21284 a 0.95712933,0.96939923 6.3209206e-4 0 0 0.12902,0.13067 c 2.93322,3.04092 2.91917,7.88265 -0.0571,10.89708 -2.97539,3.01353 -7.75445,3.02809 -10.75704,0.06 a 0.95712933,0.96939923 6.3209206e-4 0 0 -0.12902,-0.13068 c -2.93322,-3.04091 -2.91917,-7.88264 0.0571,-10.89707 1.4877,-1.50677 3.42615,-2.2631 5.36795,-2.27282 z m 0.0465,3.88585 c -0.98171,0 -1.96376,0.3759 -2.70724,1.12891 -1.48696,1.50603 -1.48696,3.97786 0,5.48389 1.48697,1.50602 3.92751,1.50602 5.41448,0 1.48696,-1.50603 1.48696,-3.97786 0,-5.48389 -0.74349,-0.75301 -1.72554,-1.12891 -2.70724,-1.12891 z m 0,1.92579 c 0.48785,0 0.97587,0.1915 1.35362,0.57409 0.7555,0.76519 0.7555,1.97675 0,2.74194 -0.75551,0.76519 -1.95173,0.7652 -2.70724,0 -0.75551,-0.76519 -0.75551,-1.97675 0,-2.74194 0.37775,-0.38259 0.86577,-0.57409 1.35362,-0.57409 z" />
  </g>
</svg>
