<?xml version="1.0" encoding="UTF-8" standalone="no"?>
<svg
   inkscape:version="1.3.2 (091e20ef0f, 2023-11-25)"
   sodipodi:docname="kalpa-image-horizontal.svg"
   id="svg837"
   version="1.1"
   viewBox="0 0 1200 600"
   preserveAspectRatio="xMidYMid"
   height="600"
   width="1200"
   inkscape:export-filename="kalpa-image-horizontal.svg"
   inkscape:export-xdpi="96"
   inkscape:export-ydpi="96"
   xmlns:inkscape="http://www.inkscape.org/namespaces/inkscape"
   xmlns:sodipodi="http://sodipodi.sourceforge.net/DTD/sodipodi-0.dtd"
   xmlns="http://www.w3.org/2000/svg"
   xmlns:svg="http://www.w3.org/2000/svg"
   xmlns:rdf="http://www.w3.org/1999/02/22-rdf-syntax-ns#"
   xmlns:cc="http://creativecommons.org/ns#"
   xmlns:dc="http://purl.org/dc/elements/1.1/">
  <metadata
     id="metadata843">
    <rdf:RDF>
      <cc:Work
         rdf:about="">
        <dc:format>image/svg+xml</dc:format>
        <dc:type
           rdf:resource="http://purl.org/dc/dcmitype/StillImage" />
      </cc:Work>
    </rdf:RDF>
  </metadata>
  <defs
     id="defs841" />
  <sodipodi:namedview
     fit-margin-bottom="0"
     fit-margin-right="0"
     fit-margin-top="0"
     fit-margin-left="0"
     inkscape:current-layer="svg837"
     inkscape:window-maximized="0"
     inkscape:window-y="0"
     inkscape:window-x="0"
     inkscape:cy="310"
     inkscape:cx="558"
     inkscape:zoom="0.5"
     showgrid="false"
     id="namedview839"
     inkscape:window-height="818"
     inkscape:window-width="1374"
     inkscape:pageshadow="2"
     inkscape:pageopacity="0"
     guidetolerance="10"
     gridtolerance="10"
     objecttolerance="10"
     borderopacity="1"
     bordercolor="#666666"
     pagecolor="#ffffff"
     inkscape:showpageshadow="2"
     inkscape:pagecheckerboard="0"
     inkscape:deskcolor="#d1d1d1" />
  <path
     id="path2"
     style="fill:#73ba25;fill-opacity:1;stroke-width:12.3673"
     d="m 153.10278,115.22761 c -0.82668,0.11204 -1.62701,0.51615 -2.23217,1.16686 l -28.00997,29.99777 c -1.17764,1.26523 -1.34263,3.17825 -0.40799,4.64309 l 35.30648,55.32816 c -5.70229,10.35958 -10.21378,21.49538 -13.32093,33.1823 l -61.564355,14.80443 c -1.71339,0.41036 -2.92979,1.97674 -2.88019,3.76793 l 1.15207,41.27736 c 0.048,1.7457 1.28029,3.23848 2.95222,3.59778 l 60.532265,13.17569 c 3.57766,13.33174 8.87903,25.90338 15.76912,37.41213 l -33.31436,54.74475 c -0.92928,1.52993 -0.66532,3.48642 0.62402,4.71598 l 29.6181,28.36907 c 1.24557,1.18938 3.1556,1.37892 4.60832,0.43764 l 53.59577,-35.1028 c 10.88508,5.95624 22.57261,10.57033 34.87447,13.56462 l 14.44901,61.59996 c 0.40664,1.74615 1.96311,2.94272 3.72029,2.89284 l 40.75486,-1.16684 c 1.71336,-0.0487 3.16641,-1.27679 3.52824,-2.99008 l 13.27295,-62.4994 c 12.49048,-3.79749 24.24987,-9.26052 35.04243,-16.11715 l 54.72394,34.15473 c 1.50487,0.94379 3.46121,0.69745 4.6803,-0.60779 l 28.00996,-29.99777 c 1.18493,-1.26896 1.34491,-3.1822 0.40801,-4.6431 l -20.52145,-32.18564 -6.28847,2.21217 c -0.917,0.32251 -1.92933,-0.002 -2.49616,-0.8022 0,0 -13.03452,-18.19351 -29.85809,-41.69054 -18.25926,38.84263 -56.83488,66.16969 -102.22326,67.45854 -29.3065,0.83214 -56.3784,-9.35633 -77.38144,-26.83757 l 5.88042,-5.9558 c 42.60406,35.30331 105.79468,32.87111 145.52227,-7.36576 39.72763,-40.23685 42.15301,-104.23756 7.2965,-147.38778 l 38.78678,-39.28396 a 10.861944,11.001187 6.9159296e-4 1 0 -15.36112,-15.55801 l -38.78672,39.28397 c -42.60406,-35.3033 -105.79471,-32.87113 -145.52228,7.36573 -39.72761,40.23688 -42.12898,104.23759 -7.27251,147.38782 l -5.97639,6.02869 c -16.32077,-19.71371 -26.45078,-44.89881 -27.21793,-72.61213 -1.33004,-48.04817 25.82505,-90.18997 65.93266,-109.85411 l -0.86402,-30.50828 c -7.32034,2.82937 -14.36511,6.19909 -21.04948,10.13701 l -0.0245,-0.0249 -56.01995,-34.98119 c -0.75429,-0.46912 -1.62171,-0.64472 -2.44818,-0.53483 z m 131.21726,74.72704 c 22.03593,-0.11075 44.11936,8.27028 61.15634,25.1116 a 10.86166,11.000898 6.3396627e-4 0 0 1.46409,1.48287 c 33.28668,34.50887 33.12731,89.45352 -0.64797,123.66181 -33.76519,34.19805 -87.99872,34.36328 -122.07266,0.68072 a 10.86166,11.000898 6.3396627e-4 0 0 -1.4641,-1.48288 c -33.28671,-34.50886 -33.12728,-89.45353 0.648,-123.66184 16.88257,-17.09901 38.88038,-25.68196 60.9163,-25.79225 z m 0.52805,44.09723 c -11.14057,0 -22.28502,4.26573 -30.72216,12.81104 -16.87431,17.0906 -16.87435,45.14138 0,62.23202 16.87433,17.09064 44.57003,17.09062 61.44433,0 16.87429,-17.09059 16.87434,-45.14139 0,-62.23202 -8.43719,-8.54532 -19.58162,-12.81106 -30.72217,-12.81104 z m 0,21.85414 c 5.53615,0 11.07429,2.17313 15.36107,6.5149 8.57365,8.68354 8.57358,22.4325 0,31.11601 -8.57359,8.68351 -22.14853,8.68356 -30.72215,0 -8.57365,-8.68354 -8.5736,-22.43251 0,-31.11601 4.28678,-4.34174 9.8249,-6.5149 15.36108,-6.5149 z"
     inkscape:label="logo" />
  <text
     xml:space="preserve"
     style="font-weight:600;font-size:261.871px;line-height:0;font-family:SUSE;-inkscape-font-specification:'SUSE Semi-Bold';fill:#73ba25;stroke-width:3.50721;paint-order:markers stroke fill"
     x="474.24557"
     y="385.34244"
     id="text2"
     inkscape:label="kalpa"><tspan
       sodipodi:role="line"
       id="tspan1"
       x="474.24557"
       y="385.34244"
       style="stroke-width:3.50721">Kalpa</tspan></text>
</svg>
