<?xml version="1.0" encoding="UTF-8" standalone="no"?>
<!-- Created with Inkscape (http://www.inkscape.org/) -->

<svg
   width="200mm"
   height="275mm"
   viewBox="0 0 200 275"
   version="1.1"
   id="svg1"
   sodipodi:docname="powered-by-kalpa.svg"
   inkscape:version="1.3.2 (091e20ef0f, 2023-11-25)"
   inkscape:export-filename="powered-by-kalpa.png"
   inkscape:export-xdpi="96"
   inkscape:export-ydpi="96"
   xmlns:inkscape="http://www.inkscape.org/namespaces/inkscape"
   xmlns:sodipodi="http://sodipodi.sourceforge.net/DTD/sodipodi-0.dtd"
   xmlns="http://www.w3.org/2000/svg"
   xmlns:svg="http://www.w3.org/2000/svg">
  <sodipodi:namedview
     id="namedview1"
     pagecolor="#ffffff"
     bordercolor="#000000"
     borderopacity="0.25"
     inkscape:showpageshadow="2"
     inkscape:pageopacity="0.0"
     inkscape:pagecheckerboard="0"
     inkscape:deskcolor="#d1d1d1"
     inkscape:document-units="mm"
     inkscape:zoom="0.5428973"
     inkscape:cx="227.48317"
     inkscape:cy="653.89899"
     inkscape:window-width="1920"
     inkscape:window-height="1002"
     inkscape:window-x="0"
     inkscape:window-y="0"
     inkscape:window-maximized="1"
     inkscape:current-layer="svg1" />
  <defs
     id="defs1">
    <inkscape:path-effect
       effect="fillet_chamfer"
       id="path-effect1"
       is_visible="true"
       lpeversion="1"
       nodesatellites_param="F,0,0,1,0,0,0,1 @ F,0,0,1,0,0,0,1 @ F,0,0,1,0,0,0,1 @ F,0,0,1,0,0,0,1 @ F,0,0,1,0,0,0,1 @ F,0,0,1,0,0,0,1 @ F,0,0,1,0,0,0,1 @ F,0,0,1,0,0,0,1"
       radius="0"
       unit="px"
       method="auto"
       mode="F"
       chamfer_steps="1"
       flexible="false"
       use_knot_distance="true"
       apply_no_radius="true"
       apply_with_radius="true"
       only_selected="false"
       hide_knots="false" />
  </defs>
  <path
     id="rect7"
     style="display:inline;fill:#ffffff;stroke-width:0.253159;paint-order:markers stroke fill"
     d="M 8.2866211,5.9370728 H 191.71338 a 3.96875,3.96875 0 0 1 3.96875,3.96875 V 265.09418 a 3.96875,3.96875 0 0 1 -3.96875,3.96875 H 8.2866211 a 3.96875,3.96875 0 0 1 -3.96875,-3.96875 V 9.9058228 a 3.96875,3.96875 0 0 1 3.96875,-3.96875 z"
     inkscape:label="white bg" />
  <rect
     style="fill:#000000;stroke-width:0.647332;paint-order:markers stroke fill"
     id="rect3"
     width="183.62115"
     height="255.32103"
     x="8.1894197"
     y="9.758215"
     inkscape:label="black box" />
  <path
     id="rect2"
     style="display:inline;fill:#ffffff;stroke-width:0.210054"
     d="M 12.160406,13.477015 H 187.83961 V 210.79933 H 12.160406 Z"
     inkscape:label="white bg logo" />
  <path
     id="path2"
     style="fill:#73ba25;fill-opacity:1;stroke-width:4.98253"
     d="m 55.252224,30.111961 c -0.331188,0.04527 -0.651827,0.209122 -0.894266,0.472744 L 43.136372,42.73794 c -0.471794,0.512587 -0.537893,1.287607 -0.163447,1.88107 l 14.14477,22.415527 c -2.284497,4.197049 -4.091925,8.708568 -5.336739,13.443385 l -24.664405,5.997832 c -0.686433,0.166118 -1.173757,0.800857 -1.153892,1.526527 l 0.461558,16.722989 c 0.01932,0.70728 0.512919,1.31206 1.182739,1.45763 l 24.250925,5.33794 c 1.433311,5.40118 3.557187,10.49442 6.317548,15.15707 l -13.346665,22.17914 c -0.372298,0.61984 -0.266536,1.41249 0.249999,1.91065 l 11.865835,11.49335 c 0.499013,0.48187 1.264226,0.55865 1.846225,0.17743 l 21.47198,-14.22147 c 4.360833,2.4131 9.043202,4.28245 13.971652,5.49557 l 5.788715,24.95642 c 0.16286,0.70744 0.78648,1.19222 1.49045,1.172 l 16.32753,-0.47272 c 0.68642,-0.0198 1.26855,-0.51727 1.4135,-1.21138 l 5.31753,-25.32085 c 5.00402,-1.53854 9.71516,-3.75179 14.03899,-6.52967 l 21.92391,13.83734 c 0.60289,0.38236 1.38666,0.2827 1.87508,-0.24618 l 11.22156,-12.15325 c 0.47473,-0.51411 0.53882,-1.28922 0.16343,-1.88108 l -8.22148,-13.03961 -2.51934,0.8962 c -0.36737,0.13075 -0.77295,-7.2e-4 -1.00003,-0.32498 0,0 -5.22198,-7.37088 -11.962,-16.89041 -7.31515,15.73661 -22.76964,26.80782 -40.95349,27.33001 -11.741007,0.3371 -22.586765,-3.79061 -31.001163,-10.87293 l 2.355847,-2.4129 c 17.068372,14.30268 42.384326,13.31732 58.300286,-2.98415 15.916,-16.30147 16.88768,-42.230557 2.9232,-59.712326 L 157.25605,51.936713 A 4.3516024,4.4569978 3.5830457e-4 1 0 151.10196,45.63357 L 135.56292,61.549002 C 118.49453,47.246292 93.178578,48.23165 77.262596,64.533115 61.346616,80.834587 60.384554,106.76368 74.349023,124.24545 l -2.394297,2.44244 C 65.416166,118.70113 61.3578,108.49772 61.050462,97.269989 60.51761,77.803893 71.396692,60.730684 87.46493,52.764 L 87.118782,40.403935 c -2.932742,1.146288 -5.755063,2.51149 -8.433007,4.106891 L 78.674585,44.499509 56.231416,30.32731 C 55.929227,30.137149 55.581714,30.066122 55.25061,30.11055 Z m 52.569316,30.274735 c 8.8282,-0.04499 17.67544,3.350604 24.50094,10.173627 a 4.3514853,4.4568778 3.3642321e-4 0 0 0.58654,0.60077 c 13.33559,13.980848 13.27173,36.240987 -0.25969,50.100057 -13.52726,13.85491 -35.254745,13.92186 -48.905727,0.27563 a 4.3514853,4.4568778 3.3642321e-4 0 0 -0.586547,-0.60076 C 69.821483,106.9552 69.885339,84.695035 83.416737,70.83595 90.180385,63.908531 98.993328,60.431236 107.82154,60.386554 Z m 0.21154,17.865432 c -4.46323,0 -8.928016,1.728208 -12.308175,5.190242 -6.760318,6.924026 -6.760318,18.28846 0,25.21254 6.760365,6.92405 17.856035,6.92402 24.616355,0 6.76032,-6.92406 6.76032,-18.288481 0,-25.21254 -3.38019,-3.462034 -7.84497,-5.190242 -12.30818,-5.190242 z m 0,8.853933 c 2.21796,0 4.43668,0.880436 6.15407,2.639427 3.43485,3.518043 3.43481,9.088267 0,12.606282 -3.4348,3.51801 -8.8733,3.51801 -12.30813,0 -3.434882,-3.518045 -3.434854,-9.088268 0,-12.606282 1.71738,-1.758991 3.93612,-2.639427 6.15406,-2.639427 z"
     inkscape:label="logo" />
  <path
     style="font-weight:500;font-size:64px;line-height:0;font-family:SUSE;-inkscape-font-specification:'SUSE Medium';white-space:pre;fill:#ffffff;stroke-width:0.597192"
     d="m 59.474302,243.02182 -0.418077,-5.38087 13.226434,-16.5654 h 4.598846 z m -2.356434,4.95809 v -26.90436 h 3.952728 v 26.90436 z m 15.658882,0 -8.513567,-14.22087 2.812518,-2.92105 10.451923,17.14192 z m 18.031599,0 v -6.64922 l -0.456084,-1.30678 v -3.95879 q 0,-1.92174 -1.026189,-2.80574 -0.988182,-0.92243 -2.926538,-0.92243 -1.368252,0 -2.926539,0.57652 -1.52028,0.53809 -2.698496,1.61426 l -1.710315,-2.61357 q 1.330245,-1.34521 3.344615,-2.11391 2.014371,-0.80713 4.18077,-0.80713 2.204405,0 3.876713,0.80713 1.672308,0.7687 2.622483,2.30609 0.950175,1.53739 0.950175,3.84348 v 5.99583 q 0,1.49896 0,2.99791 0.03801,1.49896 0.114021,3.03635 z m -5.320979,0.38435 q -3.192588,0 -5.092937,-1.49896 -1.90035,-1.53739 -1.90035,-3.99722 0,-1.61426 0.874161,-2.92104 0.874161,-1.30678 2.546468,-2.07548 1.672308,-0.7687 4.028742,-0.7687 3.230594,0 4.940909,1.46053 1.748322,1.46052 1.748322,3.88191 h -0.874161 q 0,2.84418 -1.558287,4.38157 -1.558287,1.53739 -4.712867,1.53739 z m 0.836154,-2.80574 q 1.862343,0 2.964545,-0.76869 1.102203,-0.7687 1.102203,-2.07548 0,-1.26835 -1.102203,-2.03705 -1.064196,-0.7687 -2.964545,-0.7687 -1.862343,0 -3.002553,0.7687 -1.102203,0.7687 -1.102203,2.03705 0,1.30678 1.102203,2.07548 1.14021,0.76869 3.002553,0.76869 z m 18.091316,2.42139 q -2.35643,0 -3.8007,-1.30678 -1.406257,-1.34522 -1.406257,-3.65131 V 221.4599 l 1.672307,1.69113 h -4.902901 v -3.22852 h 6.955281 v 23.17618 q 0,0.73027 0.49409,1.22992 0.49409,0.49965 1.21622,0.49965 h 1.82434 v 3.15165 z m 5.62505,7.68697 v -26.28941 h 3.49664 v 4.72748 l -0.72213,-0.84557 q 1.02619,-1.96017 2.85052,-3.11322 1.82434,-1.15304 4.06675,-1.15304 2.50846,0 4.44682,1.19148 1.97636,1.19148 3.07857,3.34383 1.14021,2.11391 1.14021,4.91965 v 0.38435 q 0,2.84418 -1.14021,4.99653 -1.10221,2.15234 -3.04056,3.34382 -1.93836,1.19148 -4.44682,1.19148 -2.20441,0 -3.99074,-1.07617 -1.74832,-1.11461 -2.77451,-2.95948 l 0.76014,-0.884 v 12.22227 z m 9.15968,-10.60801 q 1.55829,0 2.81252,-0.7687 1.25423,-0.76869 1.93836,-2.15235 0.72213,-1.42208 0.72213,-3.30539 v -0.38435 q 0,-1.8833 -0.72213,-3.22852 -0.68413,-1.38365 -1.93836,-2.11392 -1.25423,-0.76869 -2.81252,-0.76869 -1.6343,0 -2.92653,0.76869 -1.29224,0.7687 -2.01438,2.19079 -0.72213,1.42209 -0.72213,3.38226 0,1.96018 0.72213,3.38226 0.72214,1.42209 2.01438,2.22922 1.29223,0.7687 2.92653,0.7687 z m 24.40049,2.92104 v -6.64922 l -0.45608,-1.30678 v -3.95879 q 0,-1.92174 -1.02619,-2.80574 -0.98818,-0.92243 -2.92654,-0.92243 -1.36825,0 -2.92654,0.57652 -1.52028,0.53809 -2.69849,1.61426 l -1.71032,-2.61357 q 1.33025,-1.34521 3.34462,-2.11391 2.01437,-0.80713 4.18077,-0.80713 2.2044,0 3.87671,0.80713 1.67231,0.7687 2.62248,2.30609 0.95018,1.53739 0.95018,3.84348 v 5.99583 q 0,1.49896 0,2.99791 0.038,1.49896 0.11402,3.03635 z m -5.32097,0.38435 q -3.19259,0 -5.09294,-1.49896 -1.90035,-1.53739 -1.90035,-3.99722 0,-1.61426 0.87416,-2.92104 0.87416,-1.30678 2.54647,-2.07548 1.67231,-0.7687 4.02874,-0.7687 3.23059,0 4.94091,1.46053 1.74832,1.46052 1.74832,3.88191 h -0.87416 q 0,2.84418 -1.55829,4.38157 -1.55828,1.53739 -4.71286,1.53739 z m 0.83615,-2.80574 q 1.86234,0 2.96454,-0.76869 1.10221,-0.7687 1.10221,-2.07548 0,-1.26835 -1.10221,-2.03705 -1.06419,-0.7687 -2.96454,-0.7687 -1.86234,0 -3.00255,0.7687 -1.10221,0.7687 -1.10221,2.03705 0,1.30678 1.10221,2.07548 1.14021,0.76869 3.00255,0.76869 z"
     id="text5"
     aria-label="Kalpa"
     inkscape:label="kalpa" />
  <path
     style="font-weight:500;font-size:64px;line-height:0;font-family:SUSE;-inkscape-font-specification:'SUSE Medium';white-space:pre;stroke-width:0.280201"
     d="m 15.166723,207.46656 v -12.33493 h 1.640618 v 2.21812 l -0.338823,-0.39674 q 0.481485,-0.91971 1.33746,-1.46071 0.855974,-0.54101 1.908109,-0.54101 1.176965,0 2.086438,0.55904 0.927305,0.55904 1.444456,1.56892 0.534984,0.99184 0.534984,2.30829 v 0.18033 q 0,1.33448 -0.534984,2.34436 -0.517151,1.00988 -1.426623,1.56892 -0.909473,0.55904 -2.086438,0.55904 -1.034302,0 -1.872444,-0.50494 -0.820309,-0.52297 -1.301794,-1.38858 l 0.356656,-0.41477 v 5.73466 z m 4.297705,-4.97725 q 0.731145,0 1.319627,-0.36068 0.588483,-0.36067 0.909473,-1.00987 0.338823,-0.66724 0.338823,-1.55089 v -0.18033 q 0,-0.88364 -0.338823,-1.51482 -0.32099,-0.6492 -0.909473,-0.99184 -0.588482,-0.36067 -1.319627,-0.36067 -0.76681,0 -1.373126,0.36067 -0.606315,0.36067 -0.945138,1.02791 -0.338823,0.66724 -0.338823,1.58695 0,0.91971 0.338823,1.58695 0.338823,0.66724 0.945138,1.04594 0.606316,0.36068 1.373126,0.36068 z m 10.111194,1.55088 q -1.248295,0 -2.246932,-0.57707 -0.998637,-0.57708 -1.569287,-1.58695 -0.570649,-1.00988 -0.570649,-2.32633 v -0.1623 q 0,-1.29842 0.570649,-2.29026 0.57065,-1.00988 1.569287,-1.56892 0.998637,-0.57707 2.246932,-0.57707 1.248296,0 2.2291,0.55904 0.980804,0.55904 1.551454,1.56892 0.57065,0.99184 0.57065,2.29026 v 0.18033 q 0,1.31645 -0.57065,2.32633 -0.57065,1.00987 -1.551454,1.58695 -0.980804,0.57707 -2.2291,0.57707 z m 0,-1.55088 q 0.766811,0 1.355293,-0.37871 0.588483,-0.3787 0.909473,-1.04594 0.338823,-0.66724 0.338823,-1.51482 v -0.18033 q 0,-0.84758 -0.338823,-1.47875 -0.32099,-0.64921 -0.909473,-1.00988 -0.588482,-0.36067 -1.355293,-0.36067 -0.76681,0 -1.355292,0.3787 -0.588483,0.36067 -0.927306,1.00988 -0.338823,0.63117 -0.338823,1.47875 v 0.1623 q 0,0.84758 0.338823,1.51482 0.338823,0.66724 0.927306,1.04594 0.588482,0.37871 1.355292,0.37871 z m 7.716531,1.37054 -2.389595,-8.72822 h 1.747615 l 1.908109,7.59211 h -0.356656 l 2.086438,-7.59211 h 1.836778 l 2.086438,7.57408 h -0.356656 l 1.925942,-7.57408 h 1.729781 l -2.389595,8.72822 h -2.015106 l -2.193434,-8.25935 h 0.588482 l -2.193434,8.25935 z m 15.562957,0.18034 q -1.283961,0 -2.264765,-0.55904 -0.980804,-0.57707 -1.533621,-1.58695 -0.552817,-1.00988 -0.552817,-2.34436 v -0.18033 q 0,-1.26235 0.499319,-2.2542 0.517151,-0.99184 1.426624,-1.56891 0.927305,-0.59511 2.139936,-0.59511 1.283961,0 2.175601,0.63117 0.89164,0.63118 1.319627,1.78532 0.427988,1.13612 0.231827,2.66897 h -6.544638 v -1.33449 h 5.635165 l -0.784643,0.70331 q 0.124829,-0.95577 -0.106997,-1.60498 -0.231826,-0.66724 -0.731145,-1.02791 -0.481485,-0.36067 -1.176965,-0.36067 -0.748977,0 -1.283961,0.3787 -0.517151,0.3787 -0.802476,1.04595 -0.267492,0.6492 -0.267492,1.53285 v 0.2705 q 0,0.81151 0.32099,1.46071 0.320991,0.64921 0.927306,1.00988 0.606315,0.36067 1.444457,0.36067 0.677646,0 1.159132,-0.18033 0.499318,-0.18034 0.873807,-0.52298 l 0.980804,1.06398 q -0.499319,0.59511 -1.301795,0.90168 -0.802476,0.30657 -1.78328,0.30657 z m 5.40335,-0.18034 v -8.72822 h 1.694116 v 2.38042 l -0.231827,-0.018 q 0.08916,-0.93775 0.44582,-1.46072 0.356656,-0.52297 0.909473,-0.73937 0.57065,-0.2164 1.230463,-0.2164 h 0.713312 v 1.74925 h -0.855974 q -1.034302,0 -1.604952,0.50494 -0.552817,0.4869 -0.552817,1.47875 v 5.04938 z m 9.744365,0.18034 q -1.283961,0 -2.264765,-0.55904 -0.980804,-0.57707 -1.533621,-1.58695 -0.552817,-1.00988 -0.552817,-2.34436 v -0.18033 q 0,-1.26235 0.499319,-2.2542 0.517151,-0.99184 1.426624,-1.56891 0.927305,-0.59511 2.139935,-0.59511 1.283962,0 2.175602,0.63117 0.89164,0.63118 1.319627,1.78532 0.427987,1.13612 0.231826,2.66897 h -6.544637 v -1.33449 h 5.635165 l -0.784643,0.70331 q 0.124829,-0.95577 -0.106997,-1.60498 -0.231827,-0.66724 -0.731145,-1.02791 -0.481486,-0.36067 -1.176965,-0.36067 -0.748977,0 -1.283961,0.3787 -0.517152,0.3787 -0.802476,1.04595 -0.267492,0.6492 -0.267492,1.53285 v 0.2705 q 0,0.81151 0.32099,1.46071 0.32099,0.64921 0.927306,1.00988 0.606315,0.36067 1.444456,0.36067 0.677647,0 1.159132,-0.18033 0.499319,-0.18034 0.873808,-0.52298 l 0.980804,1.06398 q -0.499319,0.59511 -1.301795,0.90168 -0.802476,0.30657 -1.78328,0.30657 z m 8.916414,0 q -1.176965,0 -2.10427,-0.55904 -0.909473,-0.55904 -1.444457,-1.56892 -0.517151,-1.00988 -0.517151,-2.34436 v -0.18033 q 0,-1.31645 0.534984,-2.30829 0.534984,-1.00988 1.462289,-1.56892 0.927306,-0.55904 2.086438,-0.55904 1.052135,0 1.854611,0.52297 0.820309,0.50494 1.283961,1.37055 l -0.338823,0.41477 v -6.5642 h 1.747614 v 13.16447 h -1.587119 v -2.29025 l 0.338824,0.36067 q -0.499319,0.99184 -1.355293,1.55088 -0.855975,0.55904 -1.961608,0.55904 z m 0.267492,-1.55088 q 0.76681,0 1.355293,-0.36068 0.606315,-0.3787 0.945138,-1.04594 0.356656,-0.66724 0.356656,-1.58695 0,-0.91971 -0.356656,-1.58695 -0.338823,-0.66724 -0.945138,-1.02791 -0.588483,-0.36067 -1.355293,-0.36067 -0.731145,0 -1.319627,0.36067 -0.588483,0.34264 -0.927306,0.99184 -0.338823,0.63118 -0.338823,1.51482 v 0.18033 q 0,0.88365 0.338823,1.55089 0.338823,0.6492 0.927306,1.00987 0.588482,0.36068 1.319627,0.36068 z m 15.425355,1.55088 q -1.105634,0 -1.979441,-0.55904 -0.855975,-0.55904 -1.319627,-1.53285 l 0.32099,-0.36067 v 2.27222 h -1.587119 v -13.16447 h 1.747614 v 6.5642 l -0.338823,-0.41477 q 0.463653,-0.86561 1.283962,-1.37055 0.820308,-0.52297 1.854611,-0.52297 1.176965,0 2.086437,0.55904 0.927306,0.55904 1.444457,1.56892 0.534984,0.99184 0.534984,2.30829 v 0.18033 q 0,1.33448 -0.534984,2.34436 -0.517151,1.00988 -1.426624,1.56892 -0.909473,0.55904 -2.086437,0.55904 z m -0.267492,-1.55088 q 0.731144,0 1.319627,-0.36068 0.588482,-0.36067 0.909472,-1.00987 0.338824,-0.66724 0.338824,-1.55089 v -0.18033 q 0,-0.88364 -0.338824,-1.51482 -0.32099,-0.6492 -0.909472,-0.99184 -0.588483,-0.36067 -1.319627,-0.36067 -0.766811,0 -1.373126,0.36067 -0.606315,0.36067 -0.945138,1.02791 -0.338824,0.66724 -0.338824,1.58695 0,0.91971 0.338824,1.58695 0.338823,0.66724 0.945138,1.04594 0.606315,0.36068 1.373126,0.36068 z m 5.342171,4.97725 v -1.51482 h 1.801113 q 0.303158,0 0.481486,-0.19837 0.196156,-0.19836 0.320986,-0.4869 l 1.3018,-2.86733 2.56792,-7.26751 h 1.94378 l -4.06588,10.20697 q -0.17833,0.48691 -0.48149,0.97381 -0.30315,0.50494 -0.82031,0.82955 -0.49931,0.3246 -1.337456,0.3246 z m 3.441735,-2.8493 -3.798391,-9.48563 h 1.943775 l 2.888916,7.64621 z"
     id="text4"
     aria-label="powered by"
     inkscape:label="powered by" />
</svg>
